<svg width="1023" height="785" viewBox="0 0 1023 785" fill="none" xmlns="http://www.w3.org/2000/svg">
<g id="Group">
<path id="Vector" d="M174.802 115.432C169.322 122.082 167.212 131.432 164.852 140.222C145.852 211.062 99.0321 268.042 45.7121 308.742C23.1321 325.982 -4.35794 349.102 0.582064 380.012C3.24206 396.612 14.9121 408.832 23.5821 422.352C41.7721 450.662 47.6721 489.142 39.0021 523.032C29.1421 561.592 1.58207 597.572 10.1121 636.562C15.3721 660.562 33.2321 677.642 50.4021 692.322C77.1887 715.209 104.829 736.649 133.322 756.642C152.422 770.042 172.742 783.082 195.002 784.782C214.602 786.282 233.802 778.832 252.412 771.482C268.672 765.052 285.342 758.362 298.472 745.482C307.042 737.072 313.872 726.222 323.392 719.342C345.752 703.182 374.472 713.422 400.112 720.342C460.612 736.582 525.362 730.652 582.932 703.602C671.242 662.102 738.552 574.952 824.932 528.192C862.072 508.082 902.472 495.602 936.862 469.702C956.237 454.956 972.887 436.938 986.062 416.462C1012.06 376.352 1026.12 325.212 1022.06 275.152C1018 225.092 995.252 176.852 959.522 148.592C921.272 118.342 872.962 112.692 829.442 94.5322C784.502 75.7722 744.522 43.5322 700.012 23.4022C663.996 7.15881 624.8 -0.814994 585.3 0.0657809C545.8 0.946555 506.998 10.6596 471.742 28.4922C423.302 52.9922 374.202 110.152 320.252 114.492C281.812 117.492 204.822 79.0122 174.802 115.432Z" fill="url(#paint0_linear)"/>
<g id="bike 2">
<path id="Vector 2" d="M388.47 552.194L345.763 510.05L332.417 523.574L375.124 565.718L388.47 552.194Z" fill="#535461"/>
<path id="Vector 3" d="M355.95 489.881C355.95 489.881 380.74 476.801 390.32 468.381C396.087 463.335 402.288 458.808 408.85 454.851L439.95 435.921L504.95 430.921L507.95 441.921C507.95 441.921 512.95 457.921 462.95 471.921C412.95 485.921 387.95 507.921 387.95 507.921C387.95 507.921 355.95 518.881 355.95 489.881Z" fill="#DB8B8B"/>
<path id="Vector 4" opacity="0.1" d="M390.6 505.751C388.83 507.101 387.95 507.881 387.95 507.881C387.95 507.881 355.95 518.881 355.95 489.881C355.95 489.881 357.5 489.061 359.95 487.691C362.425 491.721 365.893 495.05 370.021 497.359C374.149 499.669 378.8 500.881 383.53 500.881H386.92L390.6 505.751Z" fill="black"/>
<path id="Vector 5" opacity="0.05" d="M507.01 447.441C504.23 453.331 494.64 463.011 462.95 471.881C422.34 483.251 398.22 499.881 390.6 505.751C388.83 507.101 387.95 507.881 387.95 507.881C387.95 507.881 355.95 518.881 355.95 489.881C355.95 489.881 357.5 489.061 359.95 487.691C367.38 483.621 383.11 474.691 390.29 468.341C396.056 463.294 402.257 458.766 408.82 454.811L439.92 435.881L451.5 434.991L504.92 430.881L507.92 441.881C507.92 441.881 508.62 444.031 507.01 447.441Z" fill="black"/>
<path id="Vector 6" d="M356.45 483.381L329.95 500.881L407.55 565.881C407.55 565.881 418.95 558.881 412.95 550.881C412.95 550.881 392.95 533.881 391.95 509.881L385.95 501.881H382.56C376.828 501.882 371.237 500.102 366.559 496.788C361.882 493.474 358.35 488.789 356.45 483.381Z" fill="#ABB1D1"/>
<path id="Vector 7" opacity="0.1" d="M507.01 447.441C491.01 439.711 451.95 438.881 451.95 438.881L451.53 434.991L504.95 430.881L507.95 441.881C507.95 441.881 508.62 444.031 507.01 447.441Z" fill="black"/>
<path id="Vector 8" d="M451.95 436.881C451.95 436.881 498.95 437.881 510.95 447.881L504.95 326.881H439.95L451.95 436.881Z" fill="#ABB1D1"/>
<path id="Vector 9" opacity="0.05" d="M451.95 436.381C451.95 436.381 498.95 437.381 510.95 447.381L504.95 326.381H439.95L451.95 436.381Z" fill="black"/>
<path id="Vector 10" d="M489.71 362.841C489.71 362.841 607.36 358.841 609.76 374.051C612.16 389.261 492.11 382.851 492.11 382.851C492.11 382.851 482.51 373.241 489.71 362.841Z" fill="#535461"/>
<path id="Vector 11" opacity="0.05" d="M489.71 362.841C489.71 362.841 607.36 358.841 609.76 374.051C612.16 389.261 492.11 382.851 492.11 382.851C492.11 382.851 482.51 373.241 489.71 362.841Z" fill="black"/>
<path id="Vector 12" d="M394.47 423.671H373.66V604.551H394.47V423.671Z" fill="#787786"/>
<path id="Vector 13" opacity="0.1" d="M394.47 423.661V437.591C387.55 438.491 380.47 439.061 373.66 439.281V423.661H394.47Z" fill="black"/>
<path id="Vector 14" d="M392.91 408.671C389.99 408.445 387.086 408.054 384.21 407.501C372.93 405.341 344.49 400.811 336.84 408.501C327.24 418.101 330.44 434.911 356.05 437.311C381.66 439.711 425.68 433.311 434.49 423.701C434.49 423.661 418.56 410.641 392.91 408.671Z" fill="#535461"/>
<path id="Vector 15" d="M388.87 473.291L607.37 405.261L614.57 422.071L390.47 498.901L388.87 473.291Z" fill="#787787"/>
<path id="Vector 16" d="M453.7 580.541L611.37 425.271L620.17 438.071L469.7 594.941L453.7 580.541Z" fill="#787787"/>
<path id="Vector 17" opacity="0.1" d="M655.05 527.741C650.054 529.033 645.182 530.763 640.49 532.911L630.93 506.201C635.947 504.014 641.114 502.186 646.39 500.731L655.05 527.741Z" fill="black"/>
<path id="Vector 18" d="M681.8 606.151L670.6 612.551L592.46 394.221L588.96 384.451L607.37 374.041L611.98 388.421L681.8 606.151Z" fill="#74737E" fill-opacity="0.92"/>
<path id="Vector 19" opacity="0.1" d="M611.98 388.421L592.46 394.221L588.96 384.451L607.37 374.041L611.98 388.421Z" fill="black"/>
<path id="Vector 20" d="M492.91 405.261L602.56 367.641C602.56 367.641 621.77 370.041 614.56 386.051L504.12 418.861C504.12 418.861 487.32 420.461 492.91 405.261Z" fill="#535461"/>
<path id="Vector 21" opacity="0.1" d="M369.26 613.751C369.259 619.885 368.784 626.01 367.84 632.071C358.24 631.381 348.32 630.381 338.6 629.381C340.759 617.49 340.491 605.285 337.81 593.501C347.28 591.501 356.95 589.591 366.39 587.861C368.303 596.358 369.265 605.041 369.26 613.751Z" fill="black"/>
<path id="Vector 22" opacity="0.1" d="M394.47 583.271V604.541H373.66V586.541C380.86 585.291 387.86 584.181 394.47 583.271Z" fill="black"/>
<path id="Vector 23" d="M260.01 613.381C260.01 613.381 428.09 569.381 441.69 586.171C455.29 602.961 469.7 625.381 427.32 633.381C384.94 641.381 256.84 619.771 256.84 619.771L260.01 613.381Z" fill="#787787"/>
<path id="Vector 24" opacity="0.1" d="M342.68 539.261L321.32 558.811C317.537 553.955 313.261 549.504 308.56 545.531L328.5 524.701C333.634 529.14 338.378 534.011 342.68 539.261Z" fill="black"/>
<path id="Vector 25" d="M254.41 604.551L380.06 473.291L384.07 503.701L260.81 616.551L254.41 604.551Z" fill="#70707B"/>
<path id="Vector 26" opacity="0.1" d="M252.81 626.161C259.885 626.161 265.62 620.426 265.62 613.351C265.62 606.276 259.885 600.541 252.81 600.541C245.735 600.541 240 606.276 240 613.351C240 620.426 245.735 626.161 252.81 626.161Z" fill="black"/>
<path id="Vector 27" opacity="0.1" d="M676.6 624.961C683.675 624.961 689.41 619.226 689.41 612.151C689.41 605.076 683.675 599.341 676.6 599.341C669.525 599.341 663.79 605.076 663.79 612.151C663.79 619.226 669.525 624.961 676.6 624.961Z" fill="black"/>
<path id="Vector 28" opacity="0.1" d="M449.69 626.161C463.834 626.161 475.3 614.695 475.3 600.551C475.3 586.407 463.834 574.941 449.69 574.941C435.546 574.941 424.08 586.407 424.08 600.551C424.08 614.695 435.546 626.161 449.69 626.161Z" fill="black"/>
<path id="Vector 29" d="M451.3 626.161C465.444 626.161 476.91 614.695 476.91 600.551C476.91 586.407 465.444 574.941 451.3 574.941C437.156 574.941 425.69 586.407 425.69 600.551C425.69 614.695 437.156 626.161 451.3 626.161Z" fill="#535461"/>
<path id="Vector 30" d="M444.462 598.627L444.454 598.633C441.447 600.882 440.832 605.143 443.081 608.151L463.407 635.331C465.656 638.339 469.918 638.954 472.925 636.705L472.933 636.699C475.941 634.449 476.555 630.188 474.306 627.181L453.98 600C451.731 596.993 447.47 596.378 444.462 598.627Z" fill="#6C63FF"/>
<path id="Vector 31" d="M566.95 244.881L564.57 274.991C564.296 278.805 564.346 282.635 564.72 286.441C565.03 289.811 564.72 295.711 561.42 304.711C557.183 316.208 554.993 328.358 554.95 340.611V374.881L531.95 370.881C531.95 370.881 532.95 322.881 528.95 314.881C524.95 306.881 531.95 235.881 531.95 235.881L566.95 244.881Z" fill="#DB8B8B"/>
<path id="Vector 32" opacity="0.05" d="M565.77 259.801L564.57 274.991C564.3 278.802 564.353 282.629 564.73 286.431C565.04 289.801 564.73 295.701 561.43 304.711C557.193 316.208 555.003 328.358 554.96 340.611V374.881L531.96 370.881C531.96 370.881 532.96 322.881 528.96 314.881C526.13 309.211 528.81 271.941 530.62 250.671C531.37 241.921 531.96 235.881 531.96 235.881L566.96 244.881L565.77 259.801Z" fill="black"/>
<path id="Vector 33" d="M452.97 474.881L444.32 524.081C443.229 530.65 441.556 537.109 439.32 543.381C434.25 557.241 437.49 576.671 439.95 587.271C441.04 591.951 441.95 594.911 441.95 594.911L415.95 608.911L407.95 602.911V598.911L406.95 509.911C400.95 495.911 402.95 474.911 406.95 466.911C408.087 464.282 408.887 461.52 409.33 458.691C411.33 447.971 411.95 432.911 411.95 432.911C411.95 432.911 427.95 405.911 446.95 423.911C453.95 430.541 456.61 439.211 457.17 447.511C458.15 461.721 452.97 474.881 452.97 474.881Z" fill="#DB8B8B"/>
<path id="Vector 34" opacity="0.1" d="M457.17 447.481C443.3 455.721 419.17 458.051 409.33 458.661C411.33 447.941 411.95 432.881 411.95 432.881C411.95 432.881 427.95 405.881 446.95 423.881C453.95 430.511 456.61 439.181 457.17 447.481Z" fill="black"/>
<path id="Vector 35" d="M490.95 422.881C480.316 428.544 470.267 435.243 460.95 442.881C444.95 455.881 404.95 456.881 404.95 456.881V441.881C405.95 423.881 388.95 403.881 365.95 347.881C351.26 312.121 355.33 291.881 360.19 281.881C362.95 276.231 365.95 273.881 365.95 273.881L490.95 297.881L495.42 311.281L504.95 339.881C504.95 339.881 469.95 341.881 463.95 344.881C457.95 347.881 461.95 374.881 461.95 374.881C455.95 402.881 490.95 422.881 490.95 422.881Z" fill="#ABB1D1"/>
<path id="Vector 36" opacity="0.1" d="M566.95 244.881L565.77 259.801C548.37 264.801 535.95 248.881 535.95 248.881C534.135 249.367 532.352 249.965 530.61 250.671C531.36 241.921 531.95 235.881 531.95 235.881L566.95 244.881Z" fill="black"/>
<path id="Vector 37" opacity="0.1" d="M495.42 311.281C494.95 315.951 494.95 318.881 494.95 318.881C494.95 318.881 471.95 337.881 432.95 308.881C393.95 279.881 358.95 287.881 358.95 287.881C358.95 287.881 359.36 285.561 360.19 281.881C362.95 276.231 365.95 273.881 365.95 273.881L490.95 297.881L495.42 311.281Z" fill="black"/>
<path id="Vector 38" d="M579.95 217.891C577.34 238.241 576.47 263.891 576.47 263.891C553.47 281.891 535.47 258.891 535.47 258.891C513.75 264.721 503.54 283.731 498.73 300.321C496.154 309.295 494.722 318.558 494.47 327.891C494.47 327.891 488.39 332.891 477.19 333.891C466.6 334.781 451.42 332.021 432.47 317.891C393.47 288.891 358.47 296.891 358.47 296.891C358.47 296.891 365.47 256.891 381.47 244.891C397.47 232.891 409.47 217.891 429.47 171.891C449.47 125.891 490.47 136.891 490.47 136.891C490.47 136.891 492.47 127.891 529.47 136.891C538.482 139.253 546.824 143.672 553.84 149.801C573.63 166.441 583.23 192.251 579.95 217.891Z" fill="white"/>
<path id="Vector 39" d="M543.32 147.381C543.27 148.711 543.16 150.191 542.98 151.841C540.98 169.841 538.98 167.841 516.98 171.841C503.3 174.331 496.19 162.901 492.77 153.901C491.532 150.641 490.598 147.273 489.98 143.841L537.98 135.841C537.98 135.841 543.73 134.231 543.32 147.381Z" fill="#DB8B8B"/>
<path id="Vector 40" opacity="0.05" d="M499.21 288.311C496.634 297.285 495.202 306.548 494.95 315.881C494.95 315.881 488.87 320.881 477.67 321.881C477.354 321.244 477.113 320.573 476.95 319.881C474.95 310.881 459.95 294.881 459.95 294.881C449.95 285.881 447.95 269.881 447.95 269.881L431.45 221.381L425.95 216.881C425.95 216.881 448.95 198.881 468.95 213.881C488.95 228.881 482.95 260.881 482.95 260.881L486.95 271.881C491.1 275.381 495.32 281.551 499.21 288.311Z" fill="black"/>
<path id="Vector 41" d="M428.95 215.881L450.95 268.881C450.95 268.881 452.95 284.881 462.95 293.881C462.95 293.881 477.95 309.881 479.95 318.881C481.95 327.881 509.95 351.881 509.95 351.881C509.95 351.881 535.95 375.881 537.95 384.881C537.95 384.881 561.95 391.881 558.95 405.881C558.95 405.881 576.95 387.881 558.95 370.881C540.95 353.881 516.95 318.881 516.95 318.881C516.95 318.881 502.95 281.881 489.95 270.881L485.95 259.881C485.95 259.881 491.95 227.881 471.95 212.881C451.95 197.881 428.95 215.881 428.95 215.881Z" fill="#DB8B8B"/>
<path id="Vector 42" opacity="0.1" d="M441.95 594.881L415.95 608.881L407.95 602.881V598.881C416.934 598.243 425.663 595.609 433.5 591.171C435.9 589.811 438.16 588.471 439.97 587.291C441.02 591.921 441.95 594.881 441.95 594.881Z" fill="black"/>
<path id="Vector 43" opacity="0.1" d="M471.95 173.881L485.95 228.881C485.95 228.881 442.95 235.881 433.95 228.881C424.95 221.881 407.95 219.881 407.95 219.881C407.95 219.881 425.95 167.881 435.95 161.881C445.95 155.881 471.95 173.881 471.95 173.881Z" fill="black"/>
<path id="Vector 44" d="M471.95 171.881L485.95 226.881C485.95 226.881 442.95 233.881 433.95 226.881C424.95 219.881 407.95 217.881 407.95 217.881C407.95 217.881 425.95 165.881 435.95 159.881C445.95 153.881 471.95 171.881 471.95 171.881Z" fill="white"/>
<path id="Vector 45" opacity="0.1" d="M543.32 146.381C540.519 150.247 536.957 153.499 532.853 155.938C528.748 158.376 524.188 159.949 519.453 160.56C514.718 161.171 509.909 160.806 505.32 159.489C500.731 158.172 496.46 155.93 492.77 152.901C491.532 149.641 490.598 146.273 489.98 142.841L537.98 134.841C537.98 134.841 543.73 133.231 543.32 146.381Z" fill="black"/>
<path id="Vector 46" d="M549.95 124.881C549.95 134.163 546.263 143.066 539.699 149.63C533.135 156.193 524.233 159.881 514.95 159.881C505.667 159.881 496.765 156.193 490.201 149.63C483.638 143.066 479.95 134.163 479.95 124.881C479.95 124.301 479.95 123.721 479.95 123.141C480.181 113.858 484.09 105.048 490.816 98.6469C497.543 92.2463 506.537 88.7801 515.82 89.0108C525.103 89.2416 533.913 93.1503 540.314 99.8773C546.715 106.604 550.181 115.598 549.95 124.881Z" fill="#DB8B8B"/>
<path id="Vector 47" opacity="0.1" d="M549.95 124.881C549.953 128.107 549.509 131.317 548.63 134.421C545.925 135.01 543.103 134.752 540.55 133.681C536.81 132.211 533.6 129.681 530.01 127.861C519.9 122.741 507.87 123.751 496.67 125.441C491.11 126.281 484.8 127.061 480.43 123.521C480.28 123.402 480.136 123.275 480 123.141C480.231 113.858 484.14 105.048 490.866 98.6469C497.593 92.2463 506.587 88.7801 515.87 89.0108C525.153 89.2416 533.963 93.1503 540.364 99.8773C546.765 106.604 550.231 115.598 550 124.881H549.95Z" fill="black"/>
<path id="Vector 48" opacity="0.05" d="M386.45 232.381C386.45 232.381 412.45 239.381 420.45 257.381C428.45 275.381 450.09 278.671 450.09 278.671" fill="black"/>
<path id="Vector 49" d="M484.45 628.381H424.45V647.381H484.45V628.381Z" fill="#535461"/>
<path id="Vector 50" d="M433.46 593.121C438.83 590.121 443.54 587.121 443.95 585.881C443.95 585.881 457.5 600.181 469.57 604.621C473.629 606.12 477.514 608.051 481.16 610.381C485.94 613.381 492.76 616.911 498.95 616.911C498.95 616.911 512.95 628.911 485.95 630.911C458.95 632.911 395.95 625.911 395.95 625.911L399.95 600.911C411.637 601.596 423.274 598.891 433.46 593.121Z" fill="#ABB1D1"/>
</g>
<g id="rightWheel">
<path id="Vector 51" d="M681.847 715.78L675.587 617.88L675.457 617.67L669.137 619.87L640.047 704.68L593.797 671.88L667.487 618.47L667.557 618.26L667.977 618.11L672.727 614.66L595.487 571.35L576.557 592.15L579.557 611.65L668.357 613.23V615.23L577.877 613.61L574.477 591.5L600.367 563.05L639.087 517.88L639.777 519.75L647.977 510.75L678.517 516.22V515.01L680.517 515.07V516.58L725.877 524.7L683.547 609.35L677.377 613.82V614.32V614.88L775.187 580.8L763.577 672.01L680.577 619.14L677.657 617.5L726.597 696.39L681.847 715.78ZM677.847 621.44L683.697 712.82L723.747 695.44L677.847 621.44ZM597.277 671.88L639.067 701.51L666.407 621.77L597.277 671.88ZM679.597 616.22L681.687 617.39L762.037 668.59L772.837 583.72L679.597 616.22ZM672.497 609.02L675.007 613.07L675.447 612.75L678.447 518.22L648.707 512.88L640.547 521.88L672.497 609.02ZM597.107 569.97L671.947 611.97L670.647 609.84L639.067 523.57L601.867 564.45L597.107 569.97ZM680.477 518.58L677.477 611.27L681.997 607.99L722.907 526.17L680.477 518.58Z" fill="#535461"/>
<path id="Vector 52" d="M676.757 497C666.144 496.988 655.578 498.415 645.347 501.24C640.071 502.695 634.904 504.523 629.887 506.71C603.157 518.297 581.674 539.387 569.594 565.898C557.514 592.41 555.697 622.459 564.492 650.233C573.287 678.008 592.071 701.533 617.209 716.259C642.348 730.984 672.054 735.863 700.582 729.952C729.109 724.04 754.431 707.759 771.648 684.257C788.865 660.755 796.754 631.702 793.789 602.72C790.823 573.738 777.215 546.885 755.595 527.356C733.975 507.828 705.881 497.012 676.747 497H676.757ZM676.357 703.09C656.076 703.082 636.408 696.137 620.62 683.407C604.831 670.678 593.872 652.931 589.562 633.113C585.252 613.295 587.851 592.599 596.928 574.463C606.004 556.326 621.011 541.84 639.457 533.41C644.149 531.262 649.021 529.532 654.017 528.24C666.229 525.07 678.977 524.537 691.411 526.678C703.845 528.818 715.681 533.581 726.13 540.652C736.58 547.722 745.404 556.937 752.015 567.683C758.627 578.429 762.873 590.46 764.473 602.975C766.073 615.49 764.989 628.202 761.293 640.265C757.598 652.329 751.375 663.467 743.04 672.939C734.704 682.41 724.447 689.998 712.951 695.196C701.455 700.395 688.984 703.086 676.367 703.09H676.357Z" fill="#535461"/>
<path id="Vector 53" d="M676.357 627.06C683.432 627.06 689.167 621.325 689.167 614.25C689.167 607.175 683.432 601.44 676.357 601.44C669.282 601.44 663.547 607.175 663.547 614.25C663.547 621.325 669.282 627.06 676.357 627.06Z" fill="#535461"/>
</g>
<g id="leftWheel">
<path id="Vector 54" d="M257.725 715.778L251.455 617.838L251.325 617.628L245.005 619.828L215.925 704.678L169.675 671.888L243.345 618.478L243.415 618.268L243.835 618.118L248.585 614.668L171.345 571.358L152.425 592.158L155.425 611.658L244.245 613.278V615.278L153.765 613.658L150.345 591.518L176.245 563.058L214.995 517.858L215.685 519.728L223.885 510.728L254.345 516.188V514.978L256.345 515.038V516.548L301.705 524.668L259.415 609.278L253.245 613.748V614.248V614.808L351.045 580.728L339.435 671.938L256.435 619.068L253.515 617.428L302.455 696.308L257.725 715.778ZM253.725 621.438L259.575 712.818L299.625 695.438L253.725 621.438ZM173.145 671.868L214.935 701.498L242.275 621.758L173.145 671.868ZM255.465 616.208L257.555 617.378L337.905 668.578L348.705 583.708L255.465 616.208ZM248.365 609.008L250.875 613.058L251.315 612.738L254.315 518.208L224.575 512.888L216.415 521.888L248.365 609.008ZM172.945 569.948L247.785 611.948L246.485 609.818L214.905 523.548L177.715 564.418L172.945 569.948ZM256.345 518.558L253.345 611.278L257.865 607.998L298.775 526.178L256.345 518.558Z" fill="#535461"/>
<path id="Vector 55" d="M367.415 588.738C363.405 570.919 355.285 554.283 343.705 540.158C339.406 534.909 334.666 530.038 329.535 525.598C309.809 508.567 284.986 498.568 258.962 497.17C232.938 495.771 207.187 503.053 185.749 517.873C164.311 532.693 148.401 554.211 140.515 579.05C132.629 603.89 133.214 630.645 142.178 655.116C151.142 679.587 167.978 700.39 190.042 714.258C212.107 728.127 238.152 734.277 264.09 731.743C290.028 729.208 314.39 718.134 333.353 700.257C352.317 682.379 364.807 658.712 368.865 632.968C369.809 626.907 370.284 620.783 370.285 614.648C370.292 605.932 369.329 597.242 367.415 588.738ZM252.225 703.088C233.993 703.069 216.209 697.435 201.292 686.953C186.374 676.47 175.047 661.648 168.851 644.501C162.655 627.354 161.89 608.715 166.66 591.118C171.43 573.521 181.505 557.82 195.513 546.15C209.521 534.48 226.783 527.408 244.953 525.895C263.122 524.381 281.316 528.501 297.062 537.693C312.807 546.884 325.34 560.703 332.956 577.268C340.571 593.834 342.9 612.343 339.625 630.278C335.875 650.722 325.076 669.203 309.107 682.506C293.137 695.809 273.01 703.093 252.225 703.088Z" fill="#535461"/>
<path id="Vector 56" d="M252.225 627.058C259.3 627.058 265.035 621.323 265.035 614.248C265.035 607.174 259.3 601.438 252.225 601.438C245.15 601.438 239.415 607.174 239.415 614.248C239.415 621.323 245.15 627.058 252.225 627.058Z" fill="#535461"/>
</g>
<path id="hat" d="M459.624 104.927C461.754 111.607 471.984 111.817 477.234 116.737C479.964 119.297 481.234 123.077 484.234 125.357C488.404 128.537 494.424 127.837 499.734 127.077C510.424 125.557 521.904 124.647 531.544 129.257C534.964 130.887 538.034 133.167 541.604 134.497C545.174 135.827 549.604 135.987 552.504 133.627C554.824 131.737 555.674 128.627 557.774 126.547C559.404 124.907 561.674 123.987 563.534 122.547C567.614 119.467 569.374 114.447 570.534 109.647C572.934 99.7667 573.624 89.1167 569.534 79.7467C565.444 70.3767 555.604 62.7467 544.864 63.2367C541.574 63.3867 538.364 64.2367 535.084 64.5967C526.534 65.4667 518.084 62.5967 509.504 62.1067C507.015 61.8039 504.49 62.1483 502.174 63.1067C500.427 64.0775 498.92 65.4273 497.764 67.0567C493.836 72.2021 491.146 78.1836 489.904 84.5367C488.904 89.3267 488.854 93.6667 482.984 94.4067C476.314 95.2867 455.114 90.7967 459.624 104.927Z" fill="#472727"/>
</g>
<defs>
<linearGradient id="paint0_linear" x1="957.5" y1="151" x2="29" y2="774" gradientUnits="userSpaceOnUse">
<stop stop-color="#53DBE3"/>
<stop offset="1" stop-color="#D809FA" stop-opacity="0"/>
</linearGradient>
</defs>
</svg>
